<?xml version="1.0" encoding="UTF-8" standalone="no"?>
<svg xmlns="http://www.w3.org/2000/svg"
     width="1158" height="598"
     viewBox="60 349 1158 598">
  <path d="M 254 810 L 253 809 L 239 809 L 238 810 L 233 810 L 232 811 L 229 811 L 228 812 L 225 812 L 224 813 L 217 814 L 216 815 L 214 815 L 213 816 L 208 817 L 205 819 L 200 820 L 197 822 L 192 823 L 187 826 L 185 826 L 176 831 L 174 831 L 172 832 L 170 834 L 166 836 L 163 839 L 162 839 L 158 845 L 158 849 L 159 850 L 159 852 L 162 856 L 168 859 L 172 859 L 173 860 L 184 860 L 185 859 L 189 859 L 193 856 L 193 854 L 182 849 L 181 848 L 184 845 L 185 845 L 187 843 L 217 828 L 219 828 L 237 819 L 239 819 L 244 816 L 246 816 L 248 814 L 253 812 Z M 356 825 L 356 834 L 361 844 L 368 852 L 368 853 L 380 865 L 381 865 L 386 870 L 387 870 L 394 876 L 397 877 L 402 881 L 407 883 L 409 885 L 412 886 L 416 889 L 418 889 L 425 893 L 427 893 L 430 895 L 432 895 L 439 899 L 444 900 L 447 902 L 450 902 L 451 903 L 453 903 L 454 904 L 456 904 L 460 906 L 463 906 L 467 908 L 470 908 L 471 909 L 474 909 L 475 910 L 478 910 L 479 911 L 482 911 L 483 912 L 487 912 L 488 913 L 491 913 L 492 914 L 497 914 L 498 915 L 503 915 L 504 916 L 510 916 L 511 917 L 517 917 L 518 918 L 523 918 L 524 919 L 535 919 L 536 920 L 545 920 L 546 921 L 570 921 L 571 922 L 615 922 L 616 921 L 634 921 L 635 920 L 644 920 L 645 919 L 656 919 L 657 918 L 668 918 L 669 917 L 676 917 L 677 916 L 687 916 L 688 915 L 699 915 L 700 914 L 707 914 L 708 913 L 714 913 L 715 912 L 720 912 L 721 911 L 726 911 L 727 910 L 732 910 L 733 909 L 738 909 L 739 908 L 744 908 L 745 907 L 751 907 L 752 906 L 757 906 L 758 905 L 763 905 L 764 904 L 769 904 L 770 903 L 779 902 L 780 901 L 783 901 L 784 900 L 788 900 L 789 899 L 798 898 L 799 897 L 802 897 L 803 896 L 807 896 L 808 895 L 811 895 L 812 894 L 815 894 L 816 893 L 819 893 L 820 892 L 823 892 L 824 891 L 827 891 L 828 890 L 835 889 L 839 887 L 842 887 L 843 886 L 846 886 L 847 885 L 850 885 L 851 884 L 858 883 L 862 881 L 866 881 L 867 880 L 874 879 L 875 878 L 877 878 L 878 877 L 881 877 L 885 875 L 888 875 L 889 874 L 891 874 L 895 872 L 902 871 L 903 870 L 905 870 L 906 869 L 908 869 L 909 868 L 911 868 L 912 867 L 914 867 L 915 866 L 920 865 L 923 863 L 925 863 L 932 859 L 934 859 L 938 857 L 940 855 L 943 854 L 945 852 L 949 850 L 952 847 L 953 847 L 958 841 L 960 837 L 960 834 L 961 833 L 960 832 L 960 830 L 957 829 L 955 827 L 954 827 L 950 824 L 948 824 L 944 822 L 936 822 L 935 824 L 938 827 L 938 830 L 936 832 L 922 839 L 920 839 L 916 842 L 914 842 L 911 844 L 909 844 L 908 845 L 903 846 L 900 848 L 897 848 L 889 852 L 886 852 L 880 855 L 877 855 L 876 856 L 874 856 L 873 857 L 871 857 L 867 859 L 864 859 L 860 861 L 857 861 L 853 863 L 846 864 L 842 866 L 839 866 L 838 867 L 835 867 L 834 868 L 831 868 L 830 869 L 827 869 L 826 870 L 823 870 L 822 871 L 819 871 L 818 872 L 815 872 L 814 873 L 811 873 L 810 874 L 807 874 L 806 875 L 803 875 L 802 876 L 798 876 L 797 877 L 794 877 L 793 878 L 790 878 L 789 879 L 786 879 L 785 880 L 781 880 L 780 881 L 776 881 L 775 882 L 770 882 L 769 883 L 765 883 L 764 884 L 761 884 L 760 885 L 754 885 L 753 886 L 748 886 L 747 887 L 741 887 L 740 888 L 735 888 L 734 889 L 728 889 L 727 890 L 722 890 L 721 891 L 713 891 L 712 892 L 705 892 L 704 891 L 703 884 L 701 881 L 701 878 L 698 874 L 698 871 L 695 865 L 695 863 L 690 854 L 690 852 L 687 848 L 687 846 L 686 844 L 684 842 L 684 838 L 682 836 L 679 829 L 677 827 L 672 817 L 670 815 L 670 814 L 665 809 L 665 808 L 664 808 L 662 806 L 662 805 L 661 805 L 658 802 L 654 800 L 649 800 L 648 801 L 643 801 L 642 802 L 640 802 L 639 803 L 637 803 L 636 804 L 634 804 L 633 805 L 628 806 L 626 808 L 617 812 L 615 814 L 607 818 L 601 823 L 600 823 L 598 825 L 597 825 L 595 827 L 591 829 L 588 832 L 587 832 L 584 835 L 583 835 L 580 838 L 579 838 L 576 841 L 575 841 L 572 844 L 571 844 L 567 848 L 566 848 L 552 860 L 551 860 L 545 866 L 544 866 L 527 884 L 527 885 L 523 890 L 522 892 L 522 895 L 521 896 L 513 896 L 512 895 L 507 895 L 506 894 L 501 894 L 500 893 L 495 893 L 494 892 L 490 892 L 489 891 L 485 891 L 484 890 L 481 890 L 480 889 L 476 889 L 475 888 L 472 888 L 468 886 L 465 886 L 464 885 L 462 885 L 461 884 L 459 884 L 458 883 L 456 883 L 455 882 L 450 881 L 447 879 L 445 879 L 442 877 L 440 877 L 437 875 L 435 875 L 432 873 L 430 873 L 418 867 L 416 865 L 413 864 L 411 862 L 403 858 L 401 856 L 397 854 L 394 851 L 393 851 L 390 848 L 389 848 L 386 845 L 385 845 L 383 843 L 383 842 L 382 842 L 377 837 L 376 837 L 368 829 L 371 826 L 371 822 L 369 821 L 362 821 L 358 823 Z M 676 893 L 675 895 L 662 895 L 661 896 L 650 896 L 649 897 L 637 897 L 636 898 L 622 898 L 621 899 L 600 899 L 599 900 L 559 900 L 558 899 L 544 899 L 543 898 L 538 898 L 537 897 L 540 895 L 542 895 L 544 893 L 547 892 L 550 889 L 551 889 L 570 870 L 571 870 L 577 864 L 578 864 L 581 861 L 582 861 L 585 858 L 586 858 L 589 855 L 590 855 L 593 852 L 594 852 L 598 848 L 599 848 L 605 843 L 606 843 L 608 841 L 609 841 L 611 839 L 612 839 L 614 837 L 615 837 L 617 835 L 618 835 L 620 833 L 624 831 L 627 828 L 628 828 L 633 824 L 637 822 L 639 822 L 640 821 L 645 821 L 647 822 L 650 825 L 651 828 L 654 831 L 654 833 L 656 835 L 656 837 L 660 844 L 660 846 L 664 854 L 664 856 L 665 857 L 665 859 L 666 860 L 667 865 L 669 868 L 669 871 L 670 872 L 670 874 L 672 878 L 673 885 L 674 886 L 674 888 L 675 889 L 675 892 Z M 978 768 L 979 771 L 981 773 L 983 774 L 986 774 L 987 775 L 983 777 L 977 782 L 977 785 L 979 786 L 986 786 L 987 785 L 989 785 L 990 784 L 992 784 L 996 782 L 999 782 L 1000 781 L 1002 781 L 1003 780 L 1006 780 L 1010 778 L 1014 778 L 1015 777 L 1018 777 L 1019 776 L 1022 776 L 1023 775 L 1026 775 L 1027 774 L 1030 774 L 1031 773 L 1036 773 L 1037 772 L 1042 772 L 1043 771 L 1050 771 L 1051 770 L 1062 770 L 1063 769 L 1077 769 L 1078 770 L 1095 770 L 1096 771 L 1104 771 L 1105 772 L 1112 772 L 1113 773 L 1118 773 L 1119 774 L 1124 774 L 1125 775 L 1129 775 L 1130 776 L 1133 776 L 1134 777 L 1137 777 L 1138 778 L 1141 778 L 1142 779 L 1149 780 L 1150 781 L 1152 781 L 1153 782 L 1155 782 L 1156 783 L 1158 783 L 1159 784 L 1164 785 L 1167 787 L 1169 787 L 1175 790 L 1180 791 L 1188 795 L 1192 795 L 1193 794 L 1193 790 L 1192 789 L 1188 787 L 1185 784 L 1180 782 L 1178 780 L 1166 774 L 1164 774 L 1162 773 L 1160 771 L 1162 767 L 1160 765 L 1152 761 L 1147 760 L 1144 758 L 1141 758 L 1140 757 L 1137 757 L 1136 756 L 1129 755 L 1128 754 L 1124 754 L 1123 753 L 1118 753 L 1117 752 L 1111 752 L 1110 751 L 1104 751 L 1103 750 L 1092 750 L 1091 749 L 1069 749 L 1068 748 L 1066 748 L 1065 749 L 1048 749 L 1047 750 L 1038 750 L 1037 751 L 1029 751 L 1028 752 L 1022 752 L 1021 753 L 1016 753 L 1015 754 L 1010 754 L 1009 755 L 1003 755 L 1002 756 L 996 756 L 995 757 L 990 757 L 989 758 L 984 759 L 980 763 L 979 765 L 979 767 Z M 297 751 L 296 749 L 295 749 L 294 747 L 291 744 L 289 743 L 287 743 L 286 742 L 270 742 L 269 743 L 264 743 L 263 744 L 259 744 L 258 745 L 254 745 L 253 746 L 250 746 L 249 747 L 242 748 L 241 749 L 239 749 L 238 750 L 236 750 L 235 751 L 233 751 L 232 752 L 230 752 L 229 753 L 227 753 L 226 754 L 224 754 L 223 755 L 218 756 L 215 758 L 213 758 L 212 759 L 207 760 L 204 762 L 202 762 L 199 764 L 197 764 L 192 767 L 190 767 L 185 770 L 183 770 L 180 772 L 178 772 L 167 778 L 165 778 L 149 786 L 147 786 L 100 810 L 98 810 L 97 811 L 95 811 L 94 812 L 92 812 L 91 813 L 89 813 L 85 815 L 85 818 L 84 819 L 84 822 L 85 824 L 84 825 L 84 827 L 85 829 L 87 830 L 87 831 L 89 831 L 91 833 L 97 833 L 98 832 L 100 832 L 104 829 L 106 829 L 110 826 L 112 826 L 116 823 L 118 823 L 122 821 L 124 819 L 126 819 L 128 817 L 136 813 L 138 813 L 149 807 L 151 807 L 164 800 L 166 800 L 190 788 L 192 788 L 206 781 L 211 780 L 214 778 L 216 778 L 219 776 L 221 776 L 229 772 L 234 771 L 237 769 L 239 769 L 240 768 L 242 768 L 243 767 L 245 767 L 246 766 L 248 766 L 249 765 L 251 765 L 255 763 L 258 763 L 259 762 L 266 761 L 270 759 L 273 759 L 274 758 L 281 758 L 286 763 L 288 762 L 290 762 L 292 760 L 293 760 L 293 759 L 295 757 Z M 685 731 L 680 727 L 671 724 L 670 725 L 667 725 L 666 726 L 661 726 L 660 727 L 656 727 L 655 728 L 652 728 L 651 729 L 647 729 L 646 730 L 642 730 L 641 731 L 636 731 L 635 732 L 631 732 L 630 733 L 626 733 L 625 734 L 621 734 L 620 735 L 616 735 L 615 736 L 611 736 L 610 737 L 605 737 L 604 738 L 599 738 L 598 739 L 593 739 L 592 740 L 588 740 L 587 741 L 582 741 L 581 742 L 578 742 L 572 745 L 568 749 L 568 751 L 567 752 L 567 759 L 568 760 L 568 762 L 570 766 L 592 788 L 592 789 L 595 792 L 596 795 L 600 799 L 602 800 L 604 800 L 605 801 L 609 801 L 610 800 L 612 800 L 616 798 L 626 788 L 626 787 L 630 783 L 631 783 L 636 778 L 637 778 L 641 774 L 642 774 L 645 771 L 646 771 L 655 763 L 656 763 L 659 760 L 660 760 L 663 757 L 664 757 L 667 754 L 668 754 L 675 748 L 676 748 L 681 743 L 681 742 L 683 740 L 683 738 L 685 736 Z M 634 748 L 631 751 L 630 751 L 623 757 L 622 757 L 611 768 L 611 769 L 609 770 L 605 774 L 604 776 L 603 776 L 602 774 L 600 773 L 597 766 L 595 764 L 595 762 L 594 761 L 595 759 L 592 756 L 593 754 L 597 754 L 598 753 L 603 753 L 604 752 L 606 752 L 607 753 L 608 752 L 612 752 L 613 751 L 622 750 L 623 749 L 626 749 L 627 748 L 631 748 L 632 747 Z M 978 713 L 978 714 L 981 716 L 986 716 L 987 717 L 992 717 L 993 716 L 999 716 L 1000 715 L 1009 714 L 1010 713 L 1013 713 L 1014 712 L 1018 712 L 1019 711 L 1023 711 L 1024 710 L 1028 710 L 1029 709 L 1040 709 L 1041 708 L 1047 708 L 1048 706 L 1045 706 L 1044 705 L 1045 703 L 1077 703 L 1078 704 L 1096 704 L 1097 705 L 1107 705 L 1108 706 L 1115 706 L 1116 707 L 1121 707 L 1122 708 L 1128 708 L 1129 709 L 1132 709 L 1133 710 L 1137 710 L 1138 711 L 1145 712 L 1149 714 L 1152 714 L 1153 715 L 1155 715 L 1156 716 L 1158 716 L 1159 717 L 1164 718 L 1179 726 L 1181 726 L 1181 723 L 1174 717 L 1176 715 L 1179 714 L 1179 713 L 1175 709 L 1174 709 L 1169 705 L 1165 703 L 1163 703 L 1156 699 L 1154 699 L 1153 698 L 1151 698 L 1150 697 L 1148 697 L 1144 695 L 1141 695 L 1140 694 L 1137 694 L 1136 693 L 1132 693 L 1131 692 L 1128 692 L 1127 691 L 1121 691 L 1120 690 L 1113 690 L 1112 689 L 1105 689 L 1104 688 L 1094 688 L 1093 687 L 1054 687 L 1053 688 L 1039 688 L 1038 689 L 1034 689 L 1033 690 L 1025 690 L 1024 691 L 1019 691 L 1018 692 L 1013 692 L 1012 693 L 1003 694 L 1002 695 L 997 696 L 989 700 L 983 705 L 982 705 L 982 706 L 979 709 L 979 712 Z M 522 634 L 519 634 L 518 635 L 513 635 L 512 636 L 511 635 L 508 635 L 494 642 L 489 647 L 488 647 L 484 651 L 483 651 L 483 652 L 481 653 L 475 659 L 474 657 L 476 654 L 476 651 L 473 648 L 468 648 L 466 649 L 463 652 L 462 652 L 461 655 L 458 658 L 457 661 L 455 663 L 453 667 L 450 670 L 446 678 L 442 683 L 441 686 L 439 688 L 438 691 L 436 693 L 433 700 L 431 702 L 430 705 L 428 707 L 428 709 L 426 711 L 424 716 L 422 718 L 422 720 L 414 735 L 414 738 L 413 739 L 413 746 L 414 747 L 414 750 L 415 752 L 420 757 L 422 758 L 425 758 L 426 759 L 428 759 L 430 757 L 431 757 L 434 761 L 436 762 L 438 762 L 439 763 L 439 764 L 437 765 L 434 768 L 434 772 L 435 772 L 437 774 L 439 774 L 440 775 L 445 775 L 446 774 L 449 774 L 450 773 L 452 773 L 456 770 L 462 767 L 465 764 L 466 764 L 484 746 L 484 745 L 492 736 L 492 735 L 494 733 L 494 732 L 496 730 L 496 729 L 504 718 L 505 715 L 507 713 L 508 710 L 510 708 L 515 698 L 515 696 L 519 689 L 519 687 L 522 681 L 522 678 L 524 675 L 524 672 L 526 668 L 526 664 L 527 663 L 527 659 L 528 658 L 528 653 L 529 652 L 529 641 L 527 639 L 526 639 L 525 637 L 523 637 L 522 636 Z M 439 716 L 440 717 L 440 719 L 438 722 L 437 727 L 435 730 L 435 733 L 434 734 L 434 736 L 433 737 L 433 740 L 432 741 L 432 746 L 431 747 L 431 751 L 430 752 L 426 745 L 426 742 L 427 741 L 427 738 L 429 736 L 429 734 L 437 718 Z M 439 715 L 440 714 L 441 716 L 440 717 Z M 492 708 L 493 707 L 494 708 L 493 709 Z M 495 704 L 496 706 L 494 708 L 493 706 Z M 501 693 L 502 694 L 502 696 L 499 700 L 498 703 L 496 705 L 495 703 L 497 699 L 499 697 L 499 695 Z M 503 690 L 504 692 L 502 694 L 501 692 Z M 458 690 L 459 689 L 460 691 L 459 692 Z M 505 685 L 506 686 L 506 688 L 504 691 L 503 690 L 503 688 Z M 462 684 L 463 686 L 460 690 L 459 689 L 459 687 Z M 462 683 L 463 682 L 464 684 L 463 685 Z M 465 679 L 466 681 L 464 683 L 463 681 Z M 467 676 L 468 678 L 466 680 L 465 678 Z M 467 676 L 468 675 L 469 676 L 468 677 Z M 469 673 L 470 672 L 471 673 L 470 674 Z M 472 660 L 473 659 L 474 660 L 473 661 Z M 473 659 L 474 658 L 475 659 L 474 660 Z M 749 600 L 747 602 L 746 602 L 746 603 L 747 603 L 749 605 L 748 607 L 746 607 L 742 605 L 738 608 L 736 612 L 736 617 L 735 618 L 735 622 L 736 623 L 736 625 L 735 626 L 736 627 L 736 634 L 737 635 L 737 639 L 736 640 L 734 638 L 734 636 L 729 628 L 727 628 L 727 636 L 728 637 L 728 642 L 729 643 L 729 646 L 730 647 L 730 650 L 731 651 L 732 660 L 734 663 L 734 665 L 736 667 L 736 669 L 738 672 L 738 674 L 742 682 L 744 684 L 744 686 L 746 688 L 747 690 L 747 692 L 749 694 L 749 696 L 750 698 L 752 700 L 755 707 L 759 712 L 763 720 L 766 723 L 766 724 L 773 731 L 775 732 L 779 732 L 780 731 L 780 728 L 781 727 L 788 734 L 802 741 L 806 741 L 807 742 L 818 742 L 819 741 L 823 741 L 824 740 L 826 740 L 828 738 L 829 738 L 833 734 L 834 732 L 834 729 L 835 728 L 835 718 L 834 717 L 834 711 L 833 710 L 833 706 L 831 702 L 830 693 L 829 691 L 827 690 L 828 688 L 828 686 L 826 684 L 826 683 L 824 682 L 824 678 L 821 674 L 821 672 L 818 669 L 814 661 L 811 658 L 811 656 L 808 652 L 805 645 L 803 643 L 800 637 L 794 630 L 793 627 L 792 627 L 791 625 L 783 617 L 781 616 L 777 616 L 776 614 L 775 614 L 769 608 L 768 608 L 766 606 L 764 606 L 761 603 L 757 603 L 754 601 Z M 811 727 L 812 726 L 813 728 L 812 729 Z M 815 681 L 818 687 L 818 689 L 817 690 L 815 688 L 815 685 L 814 684 L 814 682 Z M 813 680 L 814 679 L 815 681 L 814 682 Z M 779 675 L 780 674 L 781 675 L 780 676 Z M 763 663 L 764 662 L 765 663 L 764 664 Z M 762 660 L 763 659 L 764 660 L 763 661 Z M 771 656 L 773 660 L 777 664 L 780 670 L 780 674 L 779 675 L 777 673 L 770 659 L 770 657 Z M 769 645 L 770 644 L 772 646 L 770 647 Z M 778 617 L 779 616 L 780 617 L 779 618 Z M 869 561 L 868 560 L 868 557 L 867 555 L 860 548 L 855 546 L 853 544 L 845 540 L 843 540 L 840 538 L 838 538 L 837 537 L 832 536 L 829 534 L 827 534 L 823 532 L 820 532 L 816 530 L 813 530 L 812 529 L 809 529 L 808 528 L 805 528 L 804 527 L 800 527 L 799 526 L 796 526 L 795 525 L 792 525 L 791 524 L 786 524 L 785 523 L 780 523 L 779 522 L 774 522 L 773 521 L 768 521 L 767 520 L 760 520 L 759 519 L 750 519 L 749 518 L 740 518 L 739 517 L 724 517 L 723 516 L 702 516 L 701 515 L 700 516 L 658 516 L 657 517 L 644 517 L 643 518 L 632 518 L 631 519 L 624 519 L 623 520 L 617 520 L 616 521 L 609 521 L 608 522 L 602 522 L 601 523 L 594 523 L 593 524 L 588 524 L 587 525 L 582 525 L 581 526 L 576 526 L 575 527 L 570 527 L 569 528 L 564 528 L 563 529 L 558 529 L 557 530 L 548 531 L 547 532 L 544 532 L 543 533 L 539 533 L 538 534 L 535 534 L 534 535 L 531 535 L 530 536 L 526 536 L 525 537 L 522 537 L 521 538 L 518 538 L 517 539 L 514 539 L 513 540 L 506 541 L 505 542 L 503 542 L 502 543 L 499 543 L 495 545 L 492 545 L 491 546 L 489 546 L 488 547 L 486 547 L 485 548 L 483 548 L 482 549 L 480 549 L 479 550 L 477 550 L 476 551 L 474 551 L 473 552 L 468 553 L 465 555 L 463 555 L 462 556 L 457 557 L 452 560 L 450 560 L 447 562 L 445 562 L 423 573 L 421 575 L 420 575 L 418 577 L 414 579 L 411 582 L 407 584 L 397 594 L 397 595 L 392 601 L 392 610 L 391 612 L 392 613 L 392 617 L 395 620 L 397 620 L 399 622 L 401 622 L 404 624 L 406 623 L 408 624 L 411 622 L 411 620 L 412 619 L 412 616 L 413 614 L 423 604 L 424 604 L 431 598 L 432 598 L 440 592 L 443 591 L 445 589 L 450 587 L 452 585 L 458 582 L 460 582 L 478 573 L 483 572 L 486 570 L 488 570 L 489 569 L 491 569 L 492 568 L 494 568 L 495 567 L 497 567 L 498 566 L 500 566 L 501 565 L 503 565 L 507 563 L 510 563 L 514 561 L 521 560 L 525 558 L 528 558 L 529 557 L 532 557 L 533 556 L 536 556 L 537 555 L 540 555 L 541 554 L 545 554 L 546 553 L 550 553 L 551 552 L 555 552 L 556 551 L 560 551 L 561 550 L 565 550 L 566 549 L 571 549 L 572 548 L 576 548 L 577 547 L 582 547 L 583 546 L 589 546 L 590 545 L 594 545 L 595 544 L 601 544 L 602 543 L 607 543 L 608 542 L 615 542 L 616 541 L 622 541 L 623 540 L 631 540 L 632 539 L 638 539 L 639 538 L 654 538 L 655 537 L 676 537 L 677 536 L 691 536 L 692 535 L 705 535 L 706 536 L 730 536 L 731 537 L 747 537 L 748 538 L 755 538 L 756 539 L 761 539 L 762 540 L 768 540 L 769 541 L 774 541 L 775 542 L 780 542 L 781 543 L 786 543 L 787 544 L 791 544 L 792 545 L 795 545 L 796 546 L 799 546 L 800 547 L 804 547 L 805 548 L 807 548 L 808 549 L 810 549 L 814 551 L 817 551 L 818 552 L 823 553 L 826 555 L 828 555 L 836 559 L 838 561 L 842 563 L 841 565 L 838 566 L 838 568 L 837 569 L 839 571 L 843 571 L 844 572 L 859 572 L 860 571 L 863 571 L 865 570 L 869 566 L 869 564 L 868 563 Z M 227 457 L 217 462 L 217 464 L 216 465 L 216 472 L 217 473 L 217 475 L 219 477 L 219 479 L 221 481 L 223 485 L 223 487 L 224 488 L 225 493 L 228 498 L 228 500 L 231 505 L 231 507 L 233 510 L 233 512 L 237 519 L 237 521 L 239 524 L 239 526 L 242 531 L 242 533 L 243 534 L 244 539 L 246 542 L 246 544 L 247 545 L 247 547 L 248 548 L 248 550 L 250 554 L 250 557 L 252 561 L 252 565 L 253 566 L 253 569 L 254 570 L 254 574 L 255 575 L 255 580 L 256 581 L 256 585 L 257 586 L 257 591 L 258 592 L 258 598 L 259 599 L 259 606 L 260 607 L 260 620 L 261 621 L 261 624 L 260 625 L 260 640 L 259 641 L 259 650 L 258 651 L 258 659 L 257 660 L 257 666 L 256 667 L 256 671 L 255 672 L 254 681 L 252 685 L 252 689 L 251 690 L 251 694 L 250 695 L 250 697 L 254 700 L 255 699 L 257 699 L 259 698 L 262 695 L 265 689 L 267 687 L 267 685 L 269 683 L 270 680 L 271 679 L 273 679 L 277 675 L 279 671 L 279 664 L 278 663 L 278 661 L 279 659 L 278 658 L 278 655 L 279 654 L 279 646 L 280 645 L 280 628 L 281 627 L 281 620 L 280 619 L 280 608 L 279 607 L 279 596 L 278 595 L 278 590 L 277 589 L 277 584 L 276 583 L 276 576 L 275 575 L 274 566 L 273 565 L 273 562 L 272 561 L 272 558 L 271 557 L 271 554 L 270 553 L 269 546 L 267 543 L 267 540 L 265 537 L 265 535 L 264 534 L 263 529 L 261 526 L 261 523 L 259 520 L 259 518 L 255 510 L 256 508 L 258 509 L 262 513 L 263 513 L 267 517 L 268 517 L 270 519 L 274 521 L 277 524 L 281 526 L 284 529 L 287 530 L 295 536 L 304 540 L 306 542 L 310 544 L 313 547 L 312 548 L 309 548 L 308 549 L 310 551 L 318 555 L 323 560 L 324 560 L 331 566 L 332 566 L 340 572 L 347 575 L 349 577 L 351 577 L 357 580 L 361 580 L 362 579 L 364 579 L 366 575 L 382 583 L 384 585 L 386 586 L 388 586 L 389 587 L 391 587 L 394 585 L 396 585 L 399 582 L 400 580 L 400 577 L 398 574 L 398 572 L 393 567 L 392 567 L 389 564 L 388 564 L 381 557 L 380 557 L 375 552 L 374 552 L 365 544 L 359 541 L 357 539 L 352 537 L 347 533 L 345 533 L 338 529 L 334 529 L 330 527 L 330 528 L 328 529 L 324 526 L 323 526 L 321 524 L 318 523 L 316 521 L 315 521 L 313 519 L 309 517 L 306 514 L 305 514 L 300 509 L 299 509 L 290 501 L 282 497 L 281 495 L 280 495 L 272 487 L 271 487 L 269 485 L 269 484 L 268 484 L 265 481 L 264 481 L 258 475 L 257 475 L 251 470 L 250 470 L 241 461 L 235 458 L 231 458 L 230 457 Z M 254 508 L 255 507 L 256 508 L 255 509 Z M 1105 445 L 1101 441 L 1099 440 L 1094 440 L 1093 439 L 1091 439 L 1090 440 L 1087 440 L 1081 443 L 1075 449 L 1072 450 L 1069 453 L 1068 453 L 1065 456 L 1064 456 L 1062 458 L 1061 458 L 1059 460 L 1055 462 L 1052 465 L 1051 465 L 1040 473 L 1037 474 L 1029 480 L 1026 481 L 1024 483 L 1021 484 L 1019 486 L 1012 489 L 1010 491 L 996 498 L 994 498 L 981 505 L 979 505 L 972 509 L 970 509 L 963 513 L 961 513 L 956 516 L 954 516 L 946 520 L 941 521 L 938 523 L 935 523 L 932 525 L 930 525 L 929 526 L 924 527 L 905 537 L 903 537 L 900 539 L 898 539 L 897 540 L 895 540 L 891 542 L 890 544 L 890 547 L 893 550 L 893 554 L 897 557 L 902 558 L 903 557 L 905 557 L 907 556 L 912 552 L 914 552 L 915 551 L 918 551 L 919 550 L 924 550 L 925 549 L 929 549 L 930 548 L 933 548 L 934 547 L 937 547 L 938 546 L 941 546 L 942 545 L 944 545 L 945 544 L 947 544 L 948 543 L 950 543 L 951 542 L 956 541 L 959 539 L 961 539 L 969 535 L 971 535 L 1001 520 L 1003 520 L 1005 518 L 1008 517 L 1010 515 L 1017 512 L 1019 510 L 1022 509 L 1024 507 L 1032 503 L 1037 499 L 1040 498 L 1042 496 L 1043 496 L 1045 494 L 1046 494 L 1048 492 L 1049 492 L 1051 490 L 1055 488 L 1058 485 L 1059 485 L 1067 479 L 1068 481 L 1054 509 L 1054 511 L 1051 516 L 1051 518 L 1049 521 L 1049 523 L 1046 528 L 1046 530 L 1042 538 L 1042 540 L 1041 541 L 1041 543 L 1040 544 L 1039 549 L 1037 552 L 1037 555 L 1035 558 L 1035 561 L 1033 564 L 1033 567 L 1032 568 L 1032 570 L 1031 571 L 1031 573 L 1030 574 L 1030 576 L 1029 577 L 1029 579 L 1028 580 L 1028 582 L 1027 583 L 1026 588 L 1024 591 L 1024 593 L 1022 596 L 1022 598 L 1021 599 L 1020 604 L 1018 607 L 1018 609 L 1016 612 L 1016 614 L 1014 618 L 1014 621 L 1013 622 L 1013 629 L 1014 630 L 1014 632 L 1018 636 L 1021 636 L 1022 635 L 1024 635 L 1030 629 L 1030 628 L 1032 626 L 1037 616 L 1037 614 L 1039 612 L 1039 610 L 1041 607 L 1042 602 L 1046 594 L 1047 589 L 1049 585 L 1051 583 L 1051 582 L 1054 578 L 1054 575 L 1056 572 L 1056 570 L 1057 569 L 1057 567 L 1059 563 L 1059 560 L 1061 557 L 1061 554 L 1062 553 L 1062 551 L 1067 541 L 1067 538 L 1070 532 L 1070 529 L 1071 528 L 1071 526 L 1072 525 L 1073 520 L 1075 517 L 1076 512 L 1080 504 L 1081 499 L 1084 494 L 1084 492 L 1090 481 L 1090 479 L 1095 469 L 1098 466 L 1099 464 L 1102 463 L 1102 462 L 1105 458 L 1105 454 L 1104 453 L 1105 452 Z M 1067 479 L 1068 478 L 1069 479 L 1068 480 Z M 528 414 L 525 417 L 525 421 L 523 425 L 524 426 L 523 428 L 524 429 L 524 433 L 526 437 L 539 450 L 539 451 L 549 461 L 550 461 L 554 465 L 555 465 L 558 468 L 562 470 L 565 470 L 566 471 L 568 470 L 570 468 L 571 466 L 571 464 L 568 458 L 566 456 L 565 453 L 562 450 L 562 447 L 559 443 L 559 441 L 558 440 L 557 435 L 553 431 L 553 428 L 551 424 L 547 419 L 547 418 L 546 418 L 539 412 L 536 412 L 535 411 L 533 412 L 531 412 L 529 414 Z M 758 396 L 755 396 L 754 395 L 748 395 L 747 396 L 744 396 L 743 397 L 741 397 L 737 399 L 729 405 L 728 405 L 718 415 L 718 416 L 713 421 L 713 422 L 707 429 L 706 432 L 702 437 L 697 447 L 697 449 L 695 452 L 695 454 L 693 458 L 693 463 L 695 467 L 697 469 L 700 469 L 702 468 L 704 466 L 704 465 L 706 463 L 708 459 L 718 448 L 718 447 L 756 410 L 756 409 L 759 406 L 760 404 L 760 398 Z M 653 373 L 646 373 L 645 375 L 641 379 L 639 379 L 639 380 L 634 385 L 634 386 L 632 388 L 624 404 L 624 406 L 623 407 L 623 409 L 622 410 L 621 415 L 619 418 L 619 421 L 617 425 L 617 431 L 616 432 L 616 442 L 617 443 L 617 445 L 618 447 L 623 452 L 629 452 L 632 448 L 634 444 L 634 442 L 636 439 L 636 437 L 639 432 L 639 430 L 646 417 L 646 415 L 648 412 L 648 410 L 650 408 L 650 406 L 653 402 L 653 400 L 656 397 L 657 397 L 660 393 L 660 389 L 661 388 L 661 383 L 660 382 L 660 380 L 659 378 Z" fill="#000000" fill-rule="evenodd" clip-rule="evenodd"/>
</svg>
